<svg xmlns="http://www.w3.org/2000/svg" width="15" height="18" viewBox="0 0 15 18">
  <path fill="#ffffff" d="M5.75,15.1428571 L13.25,15.1428571 L13.25,8.71428571 C13.25,6.58404454 11.5710678,4.85714286 9.5,4.85714286 C7.42893219,4.85714286 5.75,6.58404454 5.75,8.71428571 L5.75,15.1428571 Z M8.25,3.73345106 C8.6495249,3.62768243 9.06837554,3.57142857 9.5,3.57142857 C9.93162446,3.57142857 10.3504751,3.62768243 10.75,3.73345106 L10.75,3.57142857 C10.75,2.86134818 10.1903559,2.28571429 9.5,2.28571429 C8.80964406,2.28571429 8.25,2.86134818 8.25,3.57142857 L8.25,3.73345106 Z M14.5,15.1428571 L16.3665159,15.1428571 C16.7163795,15.1428571 17,15.4345811 17,15.7944408 C17,16.1543005 16.7163795,16.4460246 16.3665159,16.4460246 L11.9999436,16.4460246 C11.9908181,17.8581526 10.8750513,19 9.5,19 C8.12494865,19 7.00918191,17.8581526 7.00005638,16.4460246 L2.63348416,16.4460246 C2.28362052,16.4460246 2,16.1543005 2,15.7944408 C2,15.4345811 2.28362052,15.1428571 2.63348416,15.1428571 L4.5,15.1428571 L4.5,8.71428571 C4.5,6.81070252 5.50549658,5.14867551 7,4.25945129 L7,3.57142857 C7,2.15126779 8.11928813,1 9.5,1 C10.8807119,1 12,2.15126779 12,3.57142857 L12,4.25945129 C13.4945034,5.14867551 14.5,6.81070252 14.5,8.71428571 L14.5,15.1428571 Z M8.25011281,16.4460246 C8.25919356,17.1480602 8.81530905,17.7142857 9.5,17.7142857 C10.184691,17.7142857 10.7408064,17.1480602 10.7498872,16.4460246 L8.25011281,16.4460246 Z" transform="translate(-2 -1)"/>
</svg>
